<?xml version="1.0" encoding="UTF-8"?>
<svg id="_レイヤー_1" data-name="レイヤー 1" xmlns="http://www.w3.org/2000/svg" viewBox="0 0 162.25 162.25">
  <defs>
    <style>
      .cls-1 {
        fill: #fff;
        stroke: #999799;
        stroke-miterlimit: 10;
        stroke-width: .25px;
      }

      .cls-2 {
        fill: #00749a;
        stroke-width: 0px;
      }
    </style>
  </defs>
  <rect class="cls-1" x=".12" y=".12" width="162" height="162" rx="21.65" ry="21.65"/>
  <path class="cls-2" d="m30.73,81.15c0,19.96,11.46,37.15,28.19,45.21l-23.73-65.59c-2.76,6.37-4.46,13.16-4.46,20.38Zm84.27-2.55c0-6.15-2.34-10.62-4.25-13.8-2.55-4.25-4.88-7.64-4.88-11.89,0-4.67,3.61-8.92,8.49-8.92h.64c-8.92-8.28-20.81-13.16-33.96-13.16-16.9.15-32.64,8.65-42.03,22.71h3.19c5.31,0,13.37-.64,13.37-.64,2.76-.21,2.97,3.82.42,4.25,0,0-2.76.42-5.73.42l18.26,54.34,11.04-32.9-7.85-21.44-5.31-.42c-2.76-.21-2.34-4.25.21-4.25,0,0,8.28.64,13.16.64,5.31,0,13.37-.64,13.37-.64,2.76-.21,2.97,3.82.42,4.25,0,0-2.76.42-5.73.42l18.25,54.13,5.13-16.77c2.12-7,3.82-11.89,3.82-16.35h-.03Zm-33.11,7l-15.07,43.73c4.46,1.27,9.34,2.12,14.22,2.12,5.94,0,11.46-1.1,16.77-2.76-.21-.21-.21-.42-.42-.64l-15.5-42.46Zm43.3-28.44l.42,5.13c0,5.13-.85,10.83-3.82,18.04l-15.28,44.36c14.86-8.7,25.05-24.84,25.05-43.51-.21-8.7-2.55-16.77-6.37-23.98v-.04Zm-44.15-34.6c-32.27,0-58.59,26.32-58.59,58.59s26.32,58.59,58.59,58.59,58.59-26.32,58.59-58.59-26.32-58.59-58.59-58.59Zm0,114.62c-30.78,0-55.82-25.05-55.82-56.04.05-30.81,25.01-55.78,55.82-55.82,30.81.05,55.78,25.01,55.82,55.82,0,30.99-25.05,56.04-55.82,56.04Z"/>
</svg>