<svg width="862" height="450" viewBox="0 0 862 450" fill="none" xmlns="http://www.w3.org/2000/svg">
<path d="M8.16211 191.934V190.546H4.11523V189.623H8.16211V188.03H9.20117V189.623H13.5078V190.546H9.20117V191.934H12.8242V196.021H9.1875C9.12826 197.015 8.91862 197.851 8.55859 198.53C9.40169 199.013 10.2972 199.401 11.2451 199.692C11.8968 199.893 12.7012 200.077 13.6582 200.246L13.1045 201.285C10.9489 200.752 9.2513 200.1 8.01172 199.33C7.25521 200.205 6.0179 200.889 4.2998 201.381L3.71191 200.472C5.28874 200.134 6.4349 199.562 7.15039 198.756C6.50326 198.286 5.79915 197.669 5.03809 196.903L5.79688 196.315C6.47135 197.004 7.10026 197.553 7.68359 197.963C7.9707 197.357 8.13704 196.71 8.18262 196.021H4.59375V191.934H8.16211ZM8.16211 192.815H5.61914V195.14H8.16211V192.815ZM9.20117 192.815V195.14H11.7988V192.815H9.20117ZM3.21289 191.496V201.333H2.16016V193.738C1.75 194.463 1.29655 195.156 0.799805 195.816L0.239258 194.764C1.06868 193.688 1.75456 192.437 2.29688 191.011C2.62044 190.154 2.92578 189.151 3.21289 188.003L4.27246 188.283C3.95801 189.418 3.60482 190.489 3.21289 191.496ZM12.4072 202.83V213.815C12.4072 214.253 12.3115 214.563 12.1201 214.745C11.915 214.941 11.4912 215.039 10.8486 215.039C10.2334 215.039 9.67513 215.009 9.17383 214.95L8.96191 213.904C9.67285 213.977 10.3018 214.014 10.8486 214.014C11.0492 214.014 11.1768 213.984 11.2314 213.925C11.277 213.87 11.2998 213.765 11.2998 213.61V210.411H7.5332V214.561H6.4668V210.411H2.80957C2.79134 211.377 2.69792 212.211 2.5293 212.913C2.33789 213.72 1.96191 214.506 1.40137 215.271L0.505859 214.492C1.09375 213.717 1.46061 212.792 1.60645 211.717C1.68392 211.17 1.72266 210.525 1.72266 209.782V202.83H12.4072ZM2.81641 203.794V206.132H6.4668V203.794H2.81641ZM2.81641 207.068V209.475H6.4668V207.068H2.81641ZM11.2998 209.475V207.068H7.5332V209.475H11.2998ZM11.2998 206.132V203.794H7.5332V206.132H11.2998ZM10.0967 218.997H12.8379V226.462H7.42383V218.997H9.15332C9.25814 218.628 9.35612 218.209 9.44727 217.739L9.48145 217.582H6.67871V216.646H13.5693V217.582H10.5342C10.3792 218.161 10.2334 218.632 10.0967 218.997ZM11.833 219.852H8.41504V221.212H11.833V219.852ZM8.41504 222.039V223.338H11.833V222.039H8.41504ZM8.41504 224.165V225.594H11.833V224.165H8.41504ZM4.5459 217.903H6.52148V218.826H4.5459V220.583H6.97949V221.533H4.47754V224.78C4.47754 225.09 4.41602 225.32 4.29297 225.471C4.14258 225.662 3.86686 225.758 3.46582 225.758C3.17415 225.758 2.81641 225.735 2.39258 225.689L2.21484 224.753C2.67057 224.817 3.00553 224.849 3.21973 224.849C3.36556 224.849 3.45215 224.817 3.47949 224.753C3.50228 224.707 3.51367 224.641 3.51367 224.555V221.533H0.348633V220.583H1.41504V217.37H2.36523V220.583H3.58203V216.03H4.5459V217.903ZM6.49414 224.862C6.06576 223.878 5.59408 223.023 5.0791 222.299L5.81055 221.868C6.32552 222.561 6.80632 223.381 7.25293 224.329L6.49414 224.862ZM6.22754 228.643C7.15267 228.15 7.95247 227.474 8.62695 226.612L9.46094 227.173C8.72266 228.112 7.90234 228.845 7 229.374L6.22754 228.643ZM12.8105 229.347C12.1178 228.476 11.4092 227.756 10.6846 227.187L11.4365 226.599C12.2568 227.214 12.9906 227.891 13.6377 228.629L12.8105 229.347ZM0.293945 224.951C0.963867 224.19 1.46289 223.229 1.79102 222.066L2.67285 222.36C2.31738 223.691 1.76595 224.783 1.01855 225.635L0.293945 224.951ZM0.813477 228.39C2.9554 227.583 4.47982 226.229 5.38672 224.329L6.17285 224.931C5.1748 226.89 3.6071 228.319 1.46973 229.217L0.813477 228.39ZM7.90918 231.391H13.4258V232.286H10.2061V233.64H13.2275V234.508H10.2061V236.613H4.9834V234.508H2.39258V235.923C2.39258 238.033 2.29232 239.676 2.0918 240.852C1.93685 241.745 1.67708 242.567 1.3125 243.319L0.375977 242.595C0.758789 241.793 1.01172 240.799 1.13477 239.614C1.23503 238.662 1.28516 237.431 1.28516 235.923V231.391H6.80176V230.03H7.90918V231.391ZM2.39258 232.286V233.64H4.9834V232.286H2.39258ZM6.06348 232.286V233.64H9.12598V232.286H6.06348ZM6.06348 234.508V235.813H9.12598V234.508H6.06348ZM7.86816 241.59C6.4873 242.346 4.78288 242.932 2.75488 243.347L2.15332 242.39C4.09473 242.08 5.68522 241.622 6.9248 241.016C5.7946 240.232 4.89909 239.38 4.23828 238.459H3.17871V237.55H11.3271L11.915 238.083C11.2087 239.104 10.1719 240.079 8.80469 241.009C10.026 241.592 11.5846 242.034 13.4805 242.335L12.8105 243.319C10.9694 242.95 9.32194 242.374 7.86816 241.59ZM5.43457 238.459C6.03158 239.17 6.78581 239.815 7.69727 240.394L7.84082 240.489C8.97103 239.774 9.80046 239.097 10.3291 238.459H5.43457Z" fill="#333333"/>
<path d="M418.076 439.134C418.053 440.104 417.955 440.986 417.782 441.779C418.22 442.148 418.664 442.559 419.115 443.01L418.527 443.878C418.122 443.436 417.771 443.076 417.475 442.798C417.206 443.45 416.894 444.01 416.538 444.479C416.192 444.94 415.725 445.411 415.137 445.895L414.426 445.184C415.579 444.236 416.328 443.197 416.675 442.066C416.151 441.624 415.652 441.244 415.178 440.925L415.697 440.214C416.098 440.487 416.504 440.777 416.914 441.082C417.005 440.512 417.067 439.863 417.099 439.134H415.321V438.225H417.14L417.208 436.126H418.206L418.138 438.225H420.209C420.2 438.904 420.195 439.375 420.195 439.64C420.195 441.759 420.286 443.229 420.469 444.049C420.514 444.245 420.562 444.343 420.612 444.343C420.662 444.343 420.713 444.24 420.763 444.035C420.863 443.63 420.938 443.14 420.988 442.565L421.761 443.023C421.565 444.824 421.182 445.724 420.612 445.724C420.248 445.724 419.938 445.377 419.683 444.685C419.491 444.165 419.364 443.488 419.3 442.654C419.241 441.816 419.211 440.745 419.211 439.441V439.257V439.134H418.076ZM412.505 443.126L412.854 443.092C413.496 443.028 414.314 442.935 415.308 442.812L415.335 443.522C414.382 443.677 413.439 443.805 412.505 443.905V445.19C412.505 445.76 412.177 446.045 411.521 446.045C411.015 446.045 410.509 446.006 410.003 445.929L409.832 445.108C410.356 445.172 410.823 445.204 411.233 445.204C411.411 445.204 411.5 445.097 411.5 444.883V444.021L411.213 444.056C410.484 444.133 409.604 444.213 408.574 444.295L408.349 443.454C409.593 443.381 410.548 443.313 411.213 443.249L411.5 443.222V442.613C411.951 442.477 412.441 442.276 412.97 442.012H408.937V441.226H414.521L414.932 441.745C414.098 442.237 413.289 442.629 412.505 442.921V443.126ZM412.45 437.069H415.39V437.869H408.485V437.069H411.432V436.037H412.45V437.069ZM414.624 438.409V440.658H409.258V438.409H414.624ZM410.235 439.12V439.947H413.646V439.12H410.235ZM408.643 448.745C409.322 448.007 409.843 447.184 410.208 446.277L411.206 446.715C410.778 447.781 410.235 448.672 409.579 449.388L408.643 448.745ZM413.291 449.244C413.136 448.223 412.945 447.332 412.717 446.571L413.708 446.318C413.986 447.034 414.225 447.92 414.426 448.978L413.291 449.244ZM416.47 449.053C416.224 448.041 415.93 447.164 415.588 446.421L416.579 446.093C416.976 446.872 417.313 447.74 417.591 448.697L416.47 449.053ZM420.462 449.203C419.929 448.232 419.293 447.28 418.555 446.346L419.464 445.901C420.207 446.699 420.879 447.608 421.48 448.629L420.462 449.203ZM432.568 444.329C433.366 445.632 434.448 446.715 435.815 447.576L435.139 448.54C433.771 447.547 432.714 446.339 431.967 444.917V449.326H430.989V445.04C430.224 446.476 429.146 447.704 427.756 448.725L427.079 447.884C428.469 446.963 429.576 445.778 430.401 444.329H428.077V439.359H430.989V438.341H427.476V437.432H430.989V436.03H431.967V437.432H435.576V438.341H431.967V439.359H434.975V444.329H432.568ZM430.989 440.214H429.027V441.39H430.989V440.214ZM431.967 440.214V441.39H434.011V440.214H431.967ZM430.989 442.244H429.027V443.461H430.989V442.244ZM431.967 442.244V443.461H434.011V442.244H431.967ZM424.188 441.109C423.622 440.266 423.009 439.503 422.349 438.819L422.978 438.047C423.137 438.215 423.281 438.373 423.408 438.519C423.864 437.881 424.342 437.051 424.844 436.03L425.746 436.522C425.263 437.384 424.668 438.275 423.962 439.195C424.272 439.587 424.543 439.965 424.775 440.33C425.377 439.505 425.949 438.651 426.491 437.767L427.318 438.327C426.343 439.813 425.329 441.132 424.276 442.285L424.365 442.278C425.181 442.228 425.901 442.164 426.525 442.087C426.393 441.722 426.247 441.369 426.088 441.027L426.854 440.651C427.255 441.499 427.578 442.381 427.824 443.297L426.997 443.728C426.915 443.368 426.84 443.074 426.771 442.846C426.585 442.882 426.259 442.935 425.794 443.003L425.555 443.037V449.333H424.563V443.16C424.486 443.169 424.363 443.183 424.194 443.201C423.789 443.251 423.23 443.301 422.52 443.352L422.308 442.388C422.782 442.369 423.064 442.356 423.155 442.347C423.447 442.028 423.764 441.649 424.105 441.212L424.188 441.109ZM422.362 447.651C422.69 446.621 422.882 445.441 422.937 444.11L423.873 444.22C423.786 445.842 423.595 447.139 423.299 448.109L422.362 447.651ZM426.635 446.838C426.484 445.812 426.293 444.958 426.061 444.274L426.881 443.912C427.145 444.66 427.362 445.475 427.53 446.359L426.635 446.838ZM443.909 437.391H449.426V438.286H446.206V439.64H449.228V440.508H446.206V442.613H440.983V440.508H438.393V441.923C438.393 444.033 438.292 445.676 438.092 446.852C437.937 447.745 437.677 448.567 437.312 449.319L436.376 448.595C436.759 447.793 437.012 446.799 437.135 445.614C437.235 444.662 437.285 443.431 437.285 441.923V437.391H442.802V436.03H443.909V437.391ZM438.393 438.286V439.64H440.983V438.286H438.393ZM442.063 438.286V439.64H445.126V438.286H442.063ZM442.063 440.508V441.813H445.126V440.508H442.063ZM443.868 447.59C442.487 448.346 440.783 448.932 438.755 449.347L438.153 448.39C440.095 448.08 441.685 447.622 442.925 447.016C441.795 446.232 440.899 445.38 440.238 444.459H439.179V443.55H447.327L447.915 444.083C447.209 445.104 446.172 446.079 444.805 447.009C446.026 447.592 447.585 448.034 449.48 448.335L448.811 449.319C446.969 448.95 445.322 448.374 443.868 447.59ZM441.435 444.459C442.032 445.17 442.786 445.815 443.697 446.394L443.841 446.489C444.971 445.774 445.8 445.097 446.329 444.459H441.435Z" fill="#333333"/>
<g filter="url(#filter0_f_25_73)">
<rect x="37" y="18" width="800" height="400" fill="#E4E4E4"/>
</g>
<circle cx="117" cy="338" r="2" fill="#A49E9E"/>
<circle cx="117" cy="258" r="2" fill="#A49E9E"/>
<circle cx="117" cy="178" r="2" fill="#A49E9E"/>
<circle cx="117" cy="98" r="2" fill="#A49E9E"/>
<circle cx="197" cy="98" r="2" fill="#A49E9E"/>
<circle cx="197" cy="178" r="2" fill="#A49E9E"/>
<circle cx="197" cy="258" r="2" fill="#A49E9E"/>
<circle cx="197" cy="338" r="2" fill="#A49E9E"/>
<circle cx="277" cy="338" r="2" fill="#A49E9E"/>
<circle cx="277" cy="258" r="2" fill="#A49E9E"/>
<circle cx="277" cy="178" r="2" fill="#A49E9E"/>
<circle cx="277" cy="98" r="2" fill="#A49E9E"/>
<circle cx="437" cy="98" r="2" fill="#A49E9E"/>
<circle cx="357" cy="98" r="2" fill="#A49E9E"/>
<circle cx="437" cy="180" r="2" fill="#A49E9E"/>
<circle cx="437" cy="180" r="2" fill="#A49E9E"/>
<circle cx="357" cy="178" r="2" fill="#A49E9E"/>
<circle cx="357" cy="258" r="2" fill="#A49E9E"/>
<circle cx="517" cy="338" r="2" fill="#A49E9E"/>
<circle cx="517" cy="258" r="2" fill="#A49E9E"/>
<circle cx="517" cy="178" r="2" fill="#A49E9E"/>
<circle cx="517" cy="98" r="2" fill="#A49E9E"/>
<circle cx="597" cy="98" r="2" fill="#A49E9E"/>
<circle cx="597" cy="178" r="2" fill="#A49E9E"/>
<circle cx="597" cy="258" r="2" fill="#A49E9E"/>
<circle cx="597" cy="338" r="2" fill="#A49E9E"/>
<circle cx="677" cy="338" r="2" fill="#A49E9E"/>
<circle cx="677" cy="258" r="2" fill="#A49E9E"/>
<circle cx="677" cy="178" r="2" fill="#A49E9E"/>
<circle cx="677" cy="98" r="2" fill="#A49E9E"/>
<circle cx="757" cy="98" r="2" fill="#A49E9E"/>
<circle cx="757" cy="178" r="2" fill="#A49E9E"/>
<circle cx="757" cy="258" r="2" fill="#A49E9E"/>
<circle cx="757" cy="338" r="2" fill="#A49E9E"/>
<circle cx="437" cy="338" r="2" fill="#A49E9E"/>
<circle cx="357" cy="338" r="2" fill="#A49E9E"/>
<circle cx="437" cy="258" r="2" fill="#A49E9E"/>
<path d="M37 3.05176e-05L31.2265 10L42.7735 10L37 3.05176e-05ZM38 418L38 9.00003L36 9.00003L36 418L38 418Z" fill="#6F6F6F"/>
<path d="M862 418L852 412.226V423.774L862 418ZM37 419L853 419V417L37 417V419Z" fill="#6F6F6F"/>
<defs>
<filter id="filter0_f_25_73" x="27" y="8" width="820" height="420" filterUnits="userSpaceOnUse" color-interpolation-filters="sRGB">
<feFlood flood-opacity="0" result="BackgroundImageFix"/>
<feBlend mode="normal" in="SourceGraphic" in2="BackgroundImageFix" result="shape"/>
<feGaussianBlur stdDeviation="5" result="effect1_foregroundBlur_25_73"/>
</filter>
</defs>
</svg>
